# xmcd CD database file
#
# Track frame offsets:
#	150
#	20225
#	34767
#	54600
#	72192
#	87787
#	102595
#	123782
#	137532
#	154930
#
# Disc length: 2293 seconds
#
# Revision: 0
# Processed by: cddbd v1.5.2PL0 Copyright (c) Steve Scherf et al.
# Submitted via: CDex 1.70beta2
#
DISCID=8408f30a
DTITLE=Cigliano , Fausto - Napule E Surriento
DYEAR=1991
DGENRE=Musica Italiana
TTITLE0=Serenata A Surriento (Califano-Gambardella)
TTITLE1=Carmela (De Curtis)
TTITLE2=Napule E Surriento (Murolo-Tagliaferri)
TTITLE3='O Mare Canta (Bovio-Lama)
TTITLE4=Nun Lassà Surriento (Fiore-Rendine)
TTITLE5=Mandulinata A Surriento (E.A.Mario-Ciaravolo)
TTITLE6=La Sorrentina (Ricciardi Capocelatro-Cottrau)
TTITLE7=Surriento D' 'E Nammurate (Bonagura-Benedetto)
TTITLE8=Pucundria (Liuccio-Cigliano)
TTITLE9=Totna A Surriento (G.D.De Curtis-E.De Curtis)
EXTD=YEAR: 1991
EXTT0=
EXTT1=
EXTT2=
EXTT3=
EXTT4=
EXTT5=
EXTT6=
EXTT7=
EXTT8=
EXTT9=
PLAYORDER=
